<?xml version="1.0" encoding="UTF-8"?>
<svg id="Layer_1" data-name="Layer 1" xmlns="http://www.w3.org/2000/svg" version="1.1" xmlns:inkscape="http://www.inkscape.org/namespaces/inkscape" xmlns:sodipodi="http://sodipodi.sourceforge.net/DTD/sodipodi-0.dtd" viewBox="0 0 128 128">
  <defs>
    <style>
      .cls-1, .cls-2 {
        stroke-width: 0px;
      }

      .cls-1, .cls-3 {
        fill: #000;
      }

      .cls-4, .cls-2 {
        fill: #fff;
      }

      .cls-4, .cls-3 {
        stroke: #000;
        stroke-miterlimit: 10;
        stroke-width: 1px;
      }
    </style>
  </defs>
  <polyline class="cls-2" points="100.3 58 100.9 55.5 100.9 54.9 101.6 54.9 102.8 56.1 103.5 57.4 102.2 62.5 100.9 66.8 101.6 70 99.7 73.1 98.4 73.1 100.3 66.2 100.3 58"/>
  <polyline class="cls-1" points="100.3 55.5 100.3 54.2 101.6 54.2 103.5 56.1 104.1 57.4 102.8 62.5 101.6 66.8 102.2 70 99.7 73.8 98.4 73.8 98.4 72.5 99.7 72.5 100.9 70 100.3 66.8 101.6 62.5 102.8 57.4 102.2 56.1 101.6 55.5 100.3 55.5"/>
  <polyline class="cls-1" points="98.4 73.8 97.8 73.8 99.7 66.2 99.7 58 100.9 58 100.9 66.2 99 73.1 98.4 73.8"/>
  <polyline class="cls-1" points="99.7 58 100.3 55.5 101.6 55.5 100.9 58 99.7 58"/>
  <polyline class="cls-4" points="64.3 13.2 67.5 13.8 71.3 14.4 75.1 15.7 78.2 17 84.6 21.3 90.2 27 94.6 34 97.8 42.2 100.3 50.4 100.9 59.9 100.3 69.3 97.8 78.2 94.6 85.8 90.2 92.8 84.6 98.4 78.2 102.9 75.1 104.8 71.3 105.4 67.5 106.6 60.5 106.6 56.7 105.4 52.9 104.8 49.8 102.9 43.5 98.4 37.8 92.8 33.4 85.8 30.2 78.2 27.7 69.3 27.1 59.9 27.7 50.4 30.2 42.2 33.4 34 37.8 27 43.5 21.3 49.8 17 52.9 15.7 56.7 14.4 64.3 13.2"/>
  <polyline class="cls-2" points="28.3 58 27.7 55.5 27.1 54.9 26.4 54.9 25.2 56.1 24.5 57.4 26.4 62.5 27.1 66.8 26.4 70 28.3 73.1 29.6 73.1 28.3 66.2 28.3 58"/>
  <polyline class="cls-1" points="27.1 55.5 26.4 55.5 25.8 56.1 25.2 57.4 27.1 62.5 27.7 66.8 27.1 70 28.3 72.5 29.6 72.5 29.6 73.8 28.3 73.8 25.8 70 26.4 66.8 25.8 62.5 23.9 57.4 24.5 56.1 26.4 54.2 27.1 54.2 28.3 55.5 27.1 55.5"/>
  <polyline class="cls-1" points="29 73.1 27.7 66.2 27.7 58 29 58 29 66.2 30.2 73.8 29.6 73.8 29 73.1"/>
  <polyline class="cls-1" points="27.7 58 27.1 55.5 28.3 55.5 29 58 27.7 58"/>
  <polyline class="cls-1" points="35.9 54.2 38.4 53 39.7 51.7 41.6 49.2 44.1 46.6 46.6 46 49.1 46.6 52.9 48.5 56.7 54.9 55.5 54.9 51.7 49.8 49.1 47.9 46.6 47.3 44.1 47.9 42.9 49.2 41 51.7 38.4 54.2 35.9 55.5 35.9 54.2"/>
  <rect class="cls-1" x="58" y="57.4" width="1.3" height="20.8"/>
  <polyline class="cls-1" points="73.2 76.9 75.7 79.5 79.5 84.5 78.2 84.5 74.4 79.5 71.9 76.9 73.2 76.9"/>
  <polyline class="cls-1" points="69.4 55.5 68.7 55.5 67.5 58 66.8 61.8 66.8 73.8 68.1 76.9 68.7 78.2 67.5 78.2 66.8 76.9 65.6 73.8 65.6 61.8 66.2 58 67.5 55.5 68.7 54.2 69.4 54.2 69.4 55.5"/>
  <polyline class="cls-3" points="60.5 76.9 61.8 76.9 62.4 77.6 61.8 78.2 59.3 78.2 59.3 76.9 60.5 76.9"/>
  <polyline class="cls-3" points="66.2 76.9 67.5 76.9 68.1 77.6 67.5 78.2 64.9 78.2 64.3 77.6 64.9 76.9 66.2 76.9"/>
  <polyline class="cls-1" points="54.2 78.2 52.3 79.5 49.1 84.5 47.9 84.5 51 79.5 54.2 76.9 54.2 78.2"/>
  <polyline class="cls-4" points="63.7 82.6 65.6 83.3 66.8 84.5 68.1 86.4 68.1 91.5 66.8 94 65.6 95.3 63.7 95.9 61.8 95.3 60.5 94 59.3 91.5 58.6 89 59.3 86.4 60.5 84.5 61.8 83.3 63.7 82.6"/>
  <polyline class="cls-1" points="46.6 29.6 50.4 26.4 54.8 23.2 59.3 22 64.3 21.3 68.7 22 73.2 23.2 77.6 25.8 82 30.2 80.8 30.2 77.6 27 73.2 24.5 68.7 23.2 64.3 22.6 59.3 23.2 54.8 24.5 50.4 27.7 46.6 30.8 46.6 29.6"/>
  <polyline class="cls-4" points="26.4 101 23.9 99.7 22 97.8 20.7 94 20.1 89.6 19.5 84.5 20.1 79.5 20.7 73.8 22 68.1 21.4 49.8 25.8 49.2 26.4 55.5 27.1 61.2 28.3 73.1 29 79.5 30.9 85.2 34 90.9 39.1 95.9 41.6 101 41.6 114.2 29 114.2 26.4 101"/>
  <polyline class="cls-1" points="39.1 75 39.1 80.1 40.3 83.9 42.2 87.1 46.6 91.5 49.1 94.6 51.7 98.4 53.6 103.5 52.3 103.5 50.4 98.4 47.9 94.6 45.4 91.5 41 87.1 39.1 83.9 37.8 80.1 37.8 75 39.1 75"/>
  <polyline class="cls-1" points="91.5 58.7 88.4 56.8 86.5 53.6 82 49.2 78.9 47.9 75.7 47.9 74.4 48.5 72.5 49.8 69.4 54.2 68.1 54.2 71.9 48.5 74.4 47.3 75.7 46.6 78.9 46.6 82 47.9 87.7 53.6 89.6 55.5 91.5 57.4 91.5 58.7"/>
  <path class="cls-1" d="M46.6,54.9h-1.8l-1.9.6-2.5,1.9-.6,1.9v2.5l1.3,1.8h3.2l3.1-.6,1.9-1.8h3.2l1.9-1.9-7.6-4.4ZM49.1,59.9l-1.9,1.9-3.1.6h-3.2v-3.2l.5-1.6,1.4-.9,1.9-.6h1.8l6.3,3.2-.6.6h-3.2Z"/>
  <polyline class="cls-3" points="44.8 55.5 46 55.5 46.6 56.8 47.2 59.3 46.6 61.8 46 62.5 44.8 63 43.5 61.8 42.9 59.3 43.5 56.8 44.1 55.5 44.8 55.5"/>
  <polyline class="cls-1" points="35.3 58 36.5 62.5 36.5 68.7 35.3 71.2 34 71.2 35.3 68.7 35.3 62.5 34 58 35.3 58"/>
  <polyline class="cls-1" points="89.6 74.4 89.6 80.1 89 83.9 86.5 87.1 81.4 92.1 78.9 95.3 75.7 99.1 73.8 104.1 72.5 104.1 74.4 99.1 77.6 95.3 80.1 92.1 85.2 87.1 87.7 83.9 88.4 80.1 88.4 74.4 89.6 74.4"/>
  <polyline class="cls-4" points="101.6 101 102.8 101 104.1 100.3 106 97.8 107.3 94.6 108.5 90.2 108.5 79.5 107.9 74.4 106 68.7 106.6 49.8 102.8 49.8 101.6 55.5 100.9 61.8 100.3 73.8 99 79.5 97.1 85.2 94 90.9 89.6 95.9 87.1 101 87.1 114.8 99.7 114.2 101.6 101"/>
  <path class="cls-1" d="M83.9,56.8l-.6-.6-1.9-1.3h-1.9l-7,4.4-.6.6,1.3,1.3h1.9l3.8,1.8,5.1,1.3,1.9-1.3v-1.2l.6-2.5-2.5-2.5ZM84.6,61.8v.6l-.6.6-5.1-1.2-3.8-1.9h-1.5l6-3.8h1.9l1.9,1.3,1.9,1.9-.6,2.5Z"/>
  <polyline class="cls-3" points="80.8 55.5 79.5 56.8 78.9 59.3 79.5 61.8 80.8 63 82 62.5 82.7 61.8 83.3 59.3 82.7 56.8 82 56.1 80.8 55.5"/>
</svg>