<?xml version="1.0" encoding="utf-8"?>
<!-- Generator: Adobe Illustrator 16.0.3, SVG Export Plug-In . SVG Version: 6.00 Build 0)  -->
<!DOCTYPE svg PUBLIC "-//W3C//DTD SVG 1.1//EN" "http://www.w3.org/Graphics/SVG/1.1/DTD/svg11.dtd">
<svg version="1.1"
	 id="Layer_1" xmlns:sodipodi="http://sodipodi.sourceforge.net/DTD/sodipodi-0.dtd" xmlns:inkscape="http://www.inkscape.org/namespaces/inkscape"
	 xmlns="http://www.w3.org/2000/svg" xmlns:xlink="http://www.w3.org/1999/xlink" x="0px" y="0px" width="410.4px" height="410.4px"
	 viewBox="50 250 410 410" enable-background="new 0 0 410.4 410.4" xml:space="preserve">


<g>
	<polyline fill="#FFFFFF" points="154.56,304.979 155.16,302.58 155.16,301.979 155.76,301.979 156.96,303.181 157.56,304.38 
		156.36,309.18 155.16,313.32 155.76,316.32 153.96,319.32 152.76,319.32 154.56,312.72 154.56,304.979 	"/>
	<polyline points="154.56,302.58 154.56,301.38 155.76,301.38 157.56,303.181 158.16,304.38 156.96,309.18 155.76,313.32 
		156.36,316.32 153.96,319.92 152.76,319.92 152.76,318.72 153.96,318.72 155.16,316.32 154.56,313.32 155.76,309.18 156.96,304.38 
		156.36,303.181 155.76,302.58 154.56,302.58 	"/>
	<polyline points="152.76,319.92 152.16,319.92 153.96,312.72 153.96,304.979 155.16,304.979 155.16,312.72 153.36,319.32 
		152.76,319.92 	"/>
	<polyline points="153.96,304.979 154.56,302.58 155.76,302.58 155.16,304.979 153.96,304.979 	"/>
	<polyline fill="#FFFFFF" stroke="#000000" stroke-miterlimit="10" points="120.42,262.438 123.42,263.04 127.02,263.642 
		130.62,264.84 133.62,266.04 139.62,270.181 144.96,275.58 149.16,282.181 152.16,289.979 154.56,297.778 155.16,306.779 
		154.56,315.72 152.16,324.12 149.16,331.32 144.96,337.92 139.62,343.32 133.62,347.52 130.62,349.32 127.02,349.92 123.42,351.06 
		116.82,351.06 113.22,349.92 109.62,349.32 106.62,347.52 100.68,343.32 95.28,337.92 91.08,331.32 88.08,324.12 85.68,315.72 
		85.08,306.779 85.68,297.778 88.08,289.979 91.08,282.181 95.28,275.58 100.68,270.181 106.62,266.04 109.62,264.84 
		113.22,263.642 120.42,262.438 	"/>
	<polyline fill="#FFFFFF" points="86.28,304.979 85.68,302.58 85.08,301.979 84.48,301.979 83.28,303.181 82.68,304.38 
		84.48,309.18 85.08,313.32 84.48,316.32 86.28,319.32 87.48,319.32 86.28,312.72 86.28,304.979 	"/>
	<polyline points="85.08,302.58 84.48,302.58 83.88,303.181 83.28,304.38 85.08,309.18 85.68,313.32 85.08,316.32 86.28,318.72 
		87.48,318.72 87.48,319.92 86.28,319.92 83.88,316.32 84.48,313.32 83.88,309.18 82.08,304.38 82.68,303.181 84.48,301.38 
		85.08,301.38 86.28,302.58 85.08,302.58 	"/>
	<polyline points="86.88,319.32 85.68,312.72 85.68,304.979 86.88,304.979 86.88,312.72 88.08,319.92 87.48,319.92 86.88,319.32 	
		"/>
	<polyline points="85.68,304.979 85.08,302.58 86.28,302.58 86.88,304.979 85.68,304.979 	"/>
	<polyline points="93.48,301.38 95.88,300.181 97.08,298.979 98.88,296.58 101.28,294.181 103.62,293.58 106.02,294.181 
		109.62,295.979 113.22,301.979 112.02,301.979 108.42,297.181 106.02,295.38 103.62,294.778 101.28,295.38 100.08,296.58 
		98.28,298.979 95.88,301.38 93.48,302.58 93.48,301.38 	"/>
	<rect x="114.42" y="304.38" width="1.2" height="19.74"/>
	<polyline points="128.82,322.92 131.22,325.32 134.82,330.12 133.62,330.12 130.02,325.32 127.62,322.92 128.82,322.92 	"/>
	<polyline points="125.22,302.58 124.62,302.58 123.42,304.979 122.82,308.58 122.82,319.92 124.02,322.92 124.62,324.12 
		123.42,324.12 122.82,322.92 121.62,319.92 121.62,308.58 122.22,304.979 123.42,302.58 124.62,301.38 125.22,301.38 
		125.22,302.58 	"/>
	<polyline stroke="#000000" stroke-miterlimit="10" points="116.82,322.92 118.02,322.92 118.62,323.52 118.02,324.12 
		115.62,324.12 115.62,322.92 116.82,322.92 	"/>
	<polyline stroke="#000000" stroke-miterlimit="10" points="122.22,322.92 123.42,322.92 124.02,323.52 123.42,324.12 
		121.02,324.12 120.42,323.52 121.02,322.92 122.22,322.92 	"/>
	<polyline points="110.82,324.12 109.02,325.32 106.02,330.12 104.82,330.12 107.82,325.32 110.82,322.92 110.82,324.12 	"/>
	<polyline fill="#FFFFFF" stroke="#000000" stroke-miterlimit="10" points="119.82,328.32 121.62,328.92 122.82,330.12 
		124.02,331.92 124.02,336.72 122.82,339.12 121.62,340.32 119.82,340.92 118.02,340.32 116.82,339.12 115.62,336.72 115.02,334.32 
		115.62,331.92 116.82,330.12 118.02,328.92 119.82,328.32 	"/>
	<polyline points="103.62,277.979 107.22,274.979 111.42,271.979 115.62,270.778 120.42,270.181 124.62,270.778 128.82,271.979 
		133.02,274.38 137.22,278.58 136.02,278.58 133.02,275.58 128.82,273.181 124.62,271.979 120.42,271.38 115.62,271.979 
		111.42,273.181 107.22,276.181 103.62,279.181 103.62,277.979 	"/>
	<polyline fill="#FFFFFF" stroke="#000000" stroke-miterlimit="10" points="84.48,345.72 82.08,344.52 80.28,342.72 79.08,339.12 
		78.48,334.92 77.88,330.12 78.48,325.32 79.08,319.92 80.28,314.52 79.68,297.181 83.88,296.58 84.48,302.58 85.08,307.98 
		86.28,319.32 86.88,325.32 88.68,330.72 91.68,336.12 96.48,340.92 98.88,345.72 98.88,358.26 86.88,358.26 84.48,345.72 	"/>
	<polyline points="96.48,321.12 96.48,325.92 97.68,329.52 99.48,332.52 103.62,336.72 106.02,339.72 108.42,343.32 110.22,348.12 
		109.02,348.12 107.22,343.32 104.82,339.72 102.48,336.72 98.28,332.52 96.48,329.52 95.28,325.92 95.28,321.12 96.48,321.12 	"/>
	<polyline points="146.16,305.58 143.22,303.778 141.42,300.778 137.22,296.58 134.22,295.38 131.22,295.38 130.02,295.979 
		128.22,297.181 125.22,301.38 124.02,301.38 127.62,295.979 130.02,294.778 131.22,294.181 134.22,294.181 137.22,295.38 
		142.62,300.778 144.42,302.58 146.16,304.38 146.16,305.58 	"/>
	<path d="M103.62,301.979h-1.74l-1.8,0.601l-2.4,1.8l-0.6,1.8v2.4l1.2,1.74h3l2.94-0.602l1.8-1.739h3l1.8-1.801L103.62,301.979z
		 M106.02,306.779l-1.8,1.801l-2.94,0.6h-3v-3l0.515-1.542l1.285-0.857l1.8-0.6h1.74l6,2.999l-0.6,0.601L106.02,306.779
		L106.02,306.779z"/>
	<polyline stroke="#000000" stroke-miterlimit="10" points="101.88,302.58 103.08,302.58 103.62,303.778 104.22,306.18 
		103.62,308.58 103.08,309.18 101.88,309.72 100.68,308.58 100.08,306.18 100.68,303.778 101.28,302.58 101.88,302.58 	"/>
	<polyline points="92.88,304.979 94.08,309.18 94.08,315.12 92.88,317.52 91.68,317.52 92.88,315.12 92.88,309.18 91.68,304.979 
		92.88,304.979 	"/>
	<polyline points="144.42,320.52 144.42,325.92 143.82,329.52 141.42,332.52 136.62,337.32 134.22,340.32 131.22,343.92 
		129.42,348.72 128.22,348.72 130.02,343.92 133.02,340.32 135.42,337.32 140.22,332.52 142.62,329.52 143.22,325.92 143.22,320.52 
		144.42,320.52 	"/>
	<polyline fill="#FFFFFF" stroke="#000000" stroke-miterlimit="10" points="155.76,345.72 156.96,345.72 158.16,345.12 
		159.96,342.72 161.16,339.72 162.36,335.52 162.36,325.32 161.76,320.52 159.96,315.12 160.56,297.181 156.96,297.181 
		155.76,302.58 155.16,308.58 154.56,319.92 153.36,325.32 151.56,330.72 148.56,336.12 144.42,340.92 142.02,345.72 142.02,358.86 
		153.96,358.26 155.76,345.72 	"/>
	<path d="M139.02,303.778l-0.6-0.6l-1.8-1.199h-1.8l-6.6,4.199l-0.6,0.601l1.2,1.201h1.8l3.6,1.738l4.8,1.2l1.8-1.2v-1.14l0.6-2.4
		L139.02,303.778z M139.62,308.58v0.6l-0.6,0.54l-4.8-1.14l-3.6-1.801h-1.457l5.657-3.601h1.8l1.8,1.2l1.8,1.8L139.62,308.58z"/>
	<polyline stroke="#000000" stroke-miterlimit="10" points="136.02,302.58 134.82,303.778 134.22,306.18 134.82,308.58 
		136.02,309.72 137.22,309.18 137.82,308.58 138.42,306.18 137.82,303.778 137.22,303.181 136.02,302.58 	"/>
</g>
</svg>
